<svg width="1500" height="1681" viewBox="0 0 1500 1681" fill="none" xmlns="http://www.w3.org/2000/svg">
<path d="M820.66 1504.77C820.66 1504.77 1029.74 1554.82 1161.12 1518.84C1292.51 1482.87 1360.95 1404.14 1424.23 1297.25C1487.51 1190.36 1503.15 1073.57 1499.5 971.372C1495.85 869.177 1435.57 707.542 1420.25 676.78C1404.94 646.017 1413.8 595.441 1413.8 595.441C1280.35 616.212 1154.19 715.009 1092.3 833.2C1017.22 976.586 1056.85 1177.85 999.496 1278.48C942.143 1379.11 854.029 1410.91 854.029 1410.91L820.66 1504.77Z" fill="url(#paint0_linear_319_975)"/>
<path d="M1420.25 676.78C1404.94 646.017 1413.8 595.441 1413.8 595.441C1294.15 614.064 1180.36 695.412 1113.5 797.224C1113.5 797.224 1179.37 758.118 1209.61 764.897C1239.85 771.675 1253.93 837.893 1272.7 841.021C1291.47 844.15 1360.82 777.41 1394.18 785.231C1427.55 793.052 1487.59 885.862 1487.59 885.862C1468.33 796.044 1431.71 699.793 1420.25 676.78Z" fill="#F8E5DC"/>
<path d="M116.79 1475.05C122.491 1601.03 349.682 1603.83 522.428 1603.83C695.174 1603.83 922.365 1601.03 928.066 1475.05C932.056 1386.87 898.537 1343.97 864.652 1300.6C850.122 1282 835.525 1263.31 823.789 1240.94C784.685 1166.38 801.89 934.352 801.89 934.352H242.965C242.965 934.352 260.171 1166.38 221.067 1240.94C209.331 1263.31 194.734 1282 180.204 1300.6C146.319 1343.97 112.8 1386.87 116.79 1475.05Z" fill="#E84C00"/>
<path d="M245.053 1576.06C264.938 1544.21 209.232 1520.16 172.14 1507.97C144.492 1498.88 120.223 1489.77 97.5707 1507.97C76.0827 1525.23 67.1905 1560.13 79.895 1576.06C92.5995 1591.98 225.168 1607.91 245.053 1576.06Z" fill="#6C2C0F"/>
<path d="M799.803 1576.06C779.918 1544.21 835.624 1520.16 872.716 1507.97C900.364 1498.88 924.633 1489.77 947.285 1507.97C968.773 1525.23 977.666 1560.13 964.961 1576.06C952.256 1591.98 819.688 1607.91 799.803 1576.06Z" fill="#6C2C0F"/>
<path d="M244.53 986.492C235.39 1034.99 235.533 1117.1 253.915 1183.29C262.931 1215.76 281.731 1250.39 298.548 1281.36C316.017 1313.54 331.347 1341.78 331.347 1359.56C331.347 1359.56 334.11 1536.51 331.347 1603.22C333.472 1614.88 358.449 1638.21 416.269 1638.21C462.688 1638.21 486.214 1614.88 490.465 1603.22V1279.19C490.465 1276.6 490.334 1273.19 490.181 1269.19C489.095 1240.84 486.888 1183.29 522.428 1183.29C557.967 1183.29 555.761 1240.84 554.675 1269.19C554.522 1273.19 554.391 1276.6 554.391 1279.19V1603.22C558.642 1614.88 582.168 1638.21 628.587 1638.21C686.407 1638.21 711.384 1614.88 713.509 1603.22C710.746 1536.51 713.509 1359.56 713.509 1359.56C713.509 1341.78 728.839 1313.54 746.308 1281.36C763.125 1250.39 781.925 1215.76 790.941 1183.29C809.323 1117.1 809.466 1034.99 800.326 986.492H244.53Z" fill="#FF5400"/>
<path d="M713.509 1614.62C710.746 1547.91 713.509 1453.5 713.509 1453.5C713.509 1453.5 690.61 1479.73 678.639 1479.73C666.668 1479.73 639.532 1445.52 628.588 1445.52C617.644 1445.52 598.832 1479.73 587.431 1479.73C576.03 1479.73 554.391 1445.52 554.391 1445.52V1614.62C554.391 1614.62 553.798 1639.35 574.889 1662.15C595.981 1684.95 717.402 1689.51 728.233 1662.15C739.064 1634.79 713.509 1614.62 713.509 1614.62Z" fill="#693030"/>
<path d="M331.347 1614.62C334.11 1547.91 331.347 1453.5 331.347 1453.5C331.347 1453.5 354.246 1479.73 366.217 1479.73C378.188 1479.73 405.324 1445.52 416.268 1445.52C427.212 1445.52 446.024 1479.73 457.425 1479.73C468.826 1479.73 490.465 1445.52 490.465 1445.52V1614.62C490.465 1614.62 491.058 1639.35 469.967 1662.15C448.875 1684.95 327.454 1689.51 316.623 1662.15C305.792 1634.79 331.347 1614.62 331.347 1614.62Z" fill="#693030"/>
<path d="M398.339 1048.54C398.339 1048.54 396.129 1166.12 425.451 1232.59C450.795 1290.05 490.624 1360.86 522.428 1360.86C554.232 1360.86 594.061 1290.05 619.405 1232.59C648.727 1166.12 646.517 1048.54 646.517 1048.54H398.339Z" fill="#F7C8B0"/>
<path d="M81.9027 328.21C67.843 249.354 51.8292 159.538 51.2242 123.917C50.1387 60.0031 65.978 20.923 94.4094 5.76438C122.841 -9.39425 166.732 6.50547 220.206 39.8574C258.799 63.9277 361.192 153.999 421.669 207.199C444.99 227.713 462.078 242.744 466.872 246.395C481.976 257.897 504.253 256.53 522.428 256.53C540.603 256.53 562.88 257.897 577.984 246.395C582.778 242.744 599.866 227.713 623.187 207.199C683.664 153.999 786.057 63.9277 824.65 39.8574C878.124 6.50547 922.015 -9.39425 950.447 5.76438C978.878 20.923 994.717 60.0031 993.632 123.917C993.027 159.538 977.013 249.354 962.953 328.21C951.785 390.847 941.85 446.569 941.85 462.721C941.85 499.206 949.492 539.492 957.785 566.84C966.077 594.187 987.638 649.711 1010.86 683.688C1012.79 686.524 1014.65 689.223 1016.41 691.797C1035.8 720.064 1044.86 733.267 1044.86 747.207C1044.86 762.416 1039.88 770.703 1029.1 788.106C1018.32 805.509 971.301 859.174 912.424 907.239H132.432C73.555 859.174 26.5361 805.509 15.7558 788.106C4.97553 770.703 0 762.416 0 747.207C0 733.267 9.05587 720.064 28.4445 691.797C30.2101 689.223 32.0614 686.524 33.9993 683.688C57.2183 649.711 78.7788 594.187 87.0713 566.84C95.3638 539.492 103.006 499.206 103.006 462.721C103.006 446.569 93.0707 390.848 81.9027 328.21Z" fill="#FF5400"/>
<path d="M898.507 214.27C894.119 250.68 865.587 369.581 865.587 369.581C865.587 369.581 830.399 338.09 787.533 316.077C744.667 294.063 688.281 277.998 688.281 277.998C688.281 277.998 753.443 204.457 792.42 172.953C831.396 141.449 868.049 122.598 883.278 128.796C898.507 134.993 902.895 177.859 898.507 214.27Z" fill="#BF3F00"/>
<path d="M146.349 214.27C150.737 250.68 179.27 369.581 179.27 369.581C179.27 369.581 214.457 338.09 257.323 316.077C300.189 294.063 356.576 277.998 356.576 277.998C356.576 277.998 291.413 204.457 252.437 172.953C213.46 141.449 176.807 122.598 161.578 128.796C146.349 134.993 141.961 177.859 146.349 214.27Z" fill="#BF3F00"/>
<path d="M223.895 646.779C223.895 557.353 273.28 474.024 334.201 474.024C395.121 474.024 444.507 557.353 444.507 646.779C444.507 736.206 395.121 819.535 334.201 819.535C273.28 819.535 223.895 736.206 223.895 646.779Z" fill="white"/>
<path d="M409.596 627.298C410.932 634.418 411.648 641.823 411.648 649.317C411.648 692.327 388.061 732.405 358.965 732.405C329.869 732.405 306.282 692.327 306.282 649.317C306.282 606.308 329.869 566.23 358.965 566.23C368.016 566.23 376.535 570.109 383.976 576.748C374.018 581.152 367.07 591.118 367.07 602.708C367.07 618.377 379.771 631.079 395.438 631.079C400.594 631.079 405.429 629.703 409.596 627.298Z" fill="#582828"/>
<path d="M820.961 646.779C820.961 557.353 771.575 474.024 710.655 474.024C649.735 474.024 600.349 557.353 600.349 646.779C600.349 736.206 649.735 819.535 710.655 819.535C771.575 819.535 820.961 736.206 820.961 646.779Z" fill="white"/>
<path d="M736.521 627.298C737.858 634.418 738.574 641.823 738.574 649.317C738.574 692.327 714.987 732.405 685.891 732.405C656.795 732.405 633.207 692.327 633.207 649.317C633.207 606.308 656.795 566.23 685.891 566.23C694.942 566.23 703.461 570.109 710.902 576.748C700.944 581.152 693.996 591.118 693.996 602.708C693.996 618.377 706.697 631.079 722.364 631.079C727.52 631.079 732.355 629.703 736.521 627.298Z" fill="#582828"/>
<path d="M494.772 836.85C503.489 842.353 512.671 848.15 522.428 854.234C532.185 848.15 541.367 842.353 550.084 836.85C624.415 789.925 664.887 764.375 739.108 764.375C822.033 764.375 990.11 834.765 990.11 834.765C969.467 856.613 943.113 882.536 913.251 906.914C883.389 931.293 680.821 1093.38 522.428 1093.38C364.035 1093.38 161.467 931.293 131.605 906.914C101.743 882.536 75.3886 856.613 54.7454 834.765C54.7454 834.765 222.823 764.375 305.748 764.375C379.969 764.375 420.441 789.925 494.772 836.85Z" fill="#F8E5DC"/>
<path d="M507.517 855.099C507.517 846.864 514.193 840.187 522.428 840.187C530.663 840.187 537.339 846.864 537.339 855.099C537.339 867.77 542.079 883.693 553.366 893.687C563.73 902.864 582.932 909.894 618.531 898.738C626.389 896.275 634.756 900.649 637.219 908.508C639.682 916.367 635.308 924.734 627.449 927.197C585.107 940.467 554.028 934.107 533.596 916.016C529.257 912.173 525.557 907.937 522.428 903.47C519.299 907.937 515.599 912.173 511.26 916.016C490.828 934.107 459.749 940.467 417.406 927.197C409.548 924.734 405.174 916.367 407.637 908.508C410.099 900.649 418.466 896.275 426.325 898.738C461.924 909.894 481.126 902.864 491.49 893.687C502.776 883.693 507.517 867.77 507.517 855.099Z" fill="#996C58"/>
<path d="M522.428 759.136C482.986 759.136 458.542 775.567 458.542 809.501C458.542 843.436 487.943 887.426 522.428 887.426C556.913 887.426 586.313 843.436 586.313 809.501C586.313 775.567 561.87 759.136 522.428 759.136Z" fill="#582828"/>
<defs>
<linearGradient id="paint0_linear_319_975" x1="1230.47" y1="1260.23" x2="882.7" y2="1459.39" gradientUnits="userSpaceOnUse">
<stop stop-color="#FF5400"/>
<stop offset="0.874362" stop-color="#DD4900"/>
</linearGradient>
</defs>
</svg>
